#!OML:ASF F:\VICON\USERDATA\INSTALL\rory3\rory3.ASF
:FULLY-SPECIFIED
:DEGREES
1
root 0.41069493789198175 18.049291405980384 -29.325882941154216 -3.4547743599641847 -0.9963813926927744 -0.7637816227440897
lfemur -12.478696829097363 0.003235206476452923 -23.03199397827371
ltibia 22.99920551879542
lfoot -4.779722346917287 -3.876818575066108
ltoes -28.359275907111574
rfemur -13.587200282160934 -1.373059108266781 22.791406554059904
rtibia 71.87848191206798
rfoot 4.370445376197225 -6.678694569136939
rtoes 2.5044797074693657
lowerback 12.601282078613675 1.006064598466348 -0.4383809166867533
upperback 0.7028419132438692 1.3257564440772416 0.7980881655184613
thorax -6.361365629726224 0.672712861363504 0.8514610311609164
lowerneck -16.81429594438966 -3.4824882909052093 -1.8858117211893146
upperneck 21.469499492013412 -4.57105035936751 0.9233516887601565
head 9.637298354031447 -2.1713784892627386 0.0322065587264721
lclavicle -2.700307915720271e-15 -2.151714708380665e-15
lhumerus -32.4498962787984 9.248400709048424 80.34690236583191
lradius 21.32820856982196
lwrist 5.31976586210274
lhand -25.309221900560235 20.927396363180208
lfingers 7.125020000000001
lthumb 1.2129280979231893 50.90369631661357
rclavicle -2.700307915720271e-15 -2.151714708380665e-15
rhumerus -25.990407469614738 -20.085800199790654 -79.56719333586514
rradius 25.467605792402644
rwrist 5.997784312149563
rhand -18.41379628091391 23.151897638699154
rfingers 7.125020000000001
rthumb 7.871013717980235 -6.681582277519674
2
root 0.4335592255222115 18.051291286147805 -29.010383075762956 -3.528213841884146 -0.655546618079005 -0.7075237833498744
lfemur -11.464497497611255 -0.2855944193159303 -23.24429364006903
ltibia 23.548105200639476
lfoot -5.8641611737726125 -3.0618498603098323
ltoes -28.3316759395237
rfemur -16.04089852632039 -1.9233774051147772 22.761606602696872
rtibia 73.44028107696789
rfoot 2.064398115627677 -7.900861260869587
rtoes 1.288711298832668
lowerback 12.910278567925715 0.6740737999947997 -0.756190111436997
upperback 0.2521571880085896 0.8546603913177898 0.9953055704245946
thorax -7.012822073158196 0.4596938440244914 1.3202902546932784
lowerneck -15.584011546930856 -3.151486357669211 -2.191486479023452
upperneck 21.45739964602893 -4.062837112900811 0.9584723352458113
head 9.404785740240008 -1.9657962349905311 0.1824668236677523
lclavicle -2.7003079401561363e-15 -2.151714695976098e-15
lhumerus -32.69539585353489 9.224150750522229 80.147803234495
lradius 21.41010840976735
lwrist 5.353975767104881
lhand -25.56092061912638 19.404699470146266
lfingers 7.125020000000001
lthumb 0.9698613793358293 49.38219941682116
rclavicle -2.7003079401561363e-15 -2.151714695976098e-15
rhumerus -27.618404887665193 -20.739999078916284 -78.5794957346616
rradius 24.959406860240755
rwrist 6.194213806658367
rhand -16.639310391176334 24.013193954993522
rfingers 7.125020000000001
rthumb 9.583329608390343 -5.7488562778771275
3
root 0.45297962045187184 18.066590369428553 -28.700883207811597 -3.8201517824031113 -0.5581799681364552 -0.6461969584266769
lfemur -10.215898320630831 -0.21025875688514217 -23.450293311900566
ltibia 23.78730506199325
lfoot -6.736460230120505 -2.5556006586884656
ltoes -27.29497715697218
rfemur -18.14309702200935 -2.180716608688782 22.714206680059057
rtibia 74.2483806448738
rfoot -0.03876998594875669 -8.659289207890698
rtoes -1.2459153835026728
lowerback 13.10737632858398 0.8303077639615162 -0.5967985152958096
upperback 0.6256538442552158 1.0627575311637154 0.7098523265736176
thorax -6.722718110114543 0.5483450189093064 0.8888208895985386
lowerneck -16.511499784468892 -3.3519214729159517 -1.6222262415455688
upperneck 21.833294861365033 -4.484651507502722 0.9632642870113998
head 9.702216291788803 -2.105110986025134 0.016152321896554994
lclavicle -2.7003079445455016e-15 -2.1517147040025776e-15
lhumerus -30.86219902906674 7.961922909263626 80.09900344740689
lradius 21.325008576075614
lwrist 5.289695945604224
lhand -24.995423498152395 17.9966023432788
lfingers 7.125020000000001
lthumb 1.5160165000849375 47.970902292485285
rclavicle -2.7003079445455016e-15 -2.1517147040025776e-15
rhumerus -28.093104134808037 -22.80519554050335 -78.39339618663693
rradius 24.66870747106433
rwrist 6.180043843123318
rhand -14.8782243948862 14.734133640901941
rfingers 7.125020000000001
rthumb 11.282175609793176 -14.942466847510012
4
root 0.4680541507831964 18.062890591118826 -28.37868334527872 -3.925501039215037 -0.14796044297821445 -0.6532909381746737
lfemur -8.918609175744615 -0.4719915840947131 -23.56579312790319
ltibia 23.828305038228645
lfoot -7.678159211391636 -1.949891613919916
ltoes -27.341977101777708
rfemur -20.280795492294903 -2.6445351732403872 22.834206484205442
rtibia 74.38538057161938
rfoot -1.5599475788911654 -8.493399656934997
rtoes 0.17447975729069176
lowerback 12.858679154176523 0.6593558975935306 -0.7583851058754237
upperback 0.9790080044059926 0.819955534767736 0.8295057521087721
thorax -6.207168838504511 0.43294909294956463 1.1549908810385938
lowerneck -17.325589460134346 -3.3772308561074054 -1.7186945871627473
upperneck 22.20879008179256 -4.481621547767186 0.9379815415002571
head 9.98995715114923 -2.105730962666258 0.00557781697454568
lclavicle -2.70030796176843e-15 -2.151714711737189e-15
lhumerus -29.376601602473965 7.436283808244664 80.42710201592341
lradius 21.652507936052576
lwrist 5.572255160962407
lhand -25.418821342573942 21.614994960179047
lfingers 7.125020000000001
lthumb 1.1070786559461707 51.59189491433761
rclavicle -2.70030796176843e-15 -2.151714711737189e-15
rhumerus -28.214403942430593 -23.73119395394012 -78.08569693393841
rradius 24.166808525664784
rwrist 6.726462436970975
rhand -16.220413722136563 21.176606086886473
rfingers 7.125020000000001
rthumb 9.987526277784536 -8.56643419360069
5
root 0.48834851848297844 18.058990824792364 -28.060383481081846 -3.8760313881995057 0.5550670294622456 -0.4767084422852079
lfemur -7.982229792963162 -0.6808676481484994 -23.912592575433194
ltibia 24.122904867471256
lfoot -8.793608004700424 -1.6962220139687245
ltoes -26.23657839990406
rfemur -22.36649399979109 -3.2967031548789527 22.681106734082004
rtibia 73.99148078223925
rfoot -3.0387258222011617 -7.622962013111498
rtoes 1.7794006565515978
lowerback 12.950578110059295 0.3143191856332666 -1.1208151875673957
upperback 0.38394389110504035 0.32042259955002544 0.9711038888834783
thorax -6.880654823509857 0.20934117416608042 1.6009691911566595
lowerneck -15.377014172084097 -3.187475480587442 -1.9320209287250234
upperneck 21.985092929170353 -4.163305777794969 0.8274256543240823
head 9.543441335579423 -2.005244748687883 0.08080095676189392
lclavicle -2.7003079479312054e-15 -2.151714685760565e-15
lhumerus -30.045300444128912 6.699665068056339 80.53450154734271
lradius 22.576506130308175
lwrist 6.0480038398506135
lhand -25.057223183521444 23.200791724461734
lfingers 7.125020000000001
lthumb 1.4563168148130572 53.17549168759509
rclavicle -2.7003079479312054e-15 -2.151714685760565e-15
rhumerus -30.297100639343167 -23.06399509708806 -77.36999867213689
rradius 24.198508459056228
rwrist 5.752364943711199
rhand -14.64622623967677 11.707046587546943
rfingers 7.125020000000001
rthumb 11.505973765682384 -17.957153917854473
